<?xml version="1.0" encoding="UTF-8" standalone="no"?>
<svg
   height="16px"
   viewBox="0 0 16 16"
   width="16px"
   version="1.1"
   id="svg4"
   sodipodi:docname="audio-speaker-left-side.svg"
   inkscape:version="1.2.2 (b0a8486541, 2022-12-01)"
   xmlns:inkscape="http://www.inkscape.org/namespaces/inkscape"
   xmlns:sodipodi="http://sodipodi.sourceforge.net/DTD/sodipodi-0.dtd"
   xmlns="http://www.w3.org/2000/svg"
   xmlns:svg="http://www.w3.org/2000/svg">
  <defs
     id="defs8" />
  <sodipodi:namedview
     id="namedview6"
     pagecolor="#ffffff"
     bordercolor="#000000"
     borderopacity="0.25"
     inkscape:showpageshadow="2"
     inkscape:pageopacity="0.0"
     inkscape:pagecheckerboard="0"
     inkscape:deskcolor="#d1d1d1"
     showgrid="false"
     inkscape:zoom="48.875"
     inkscape:cx="8.2557545"
     inkscape:cy="8"
     inkscape:window-width="1361"
     inkscape:window-height="1011"
     inkscape:window-x="20"
     inkscape:window-y="20"
     inkscape:window-maximized="0"
     inkscape:current-layer="svg4" />
  <path
     d="M 9,1.007812 C 8.703125,1.003906 8.421875,1.132812 8.230469,1.359375 L 5,5 H 4 C 2.90625,5 2,5.84375 2,7 v 2 c 0,1.089844 0.910156,2 2,2 h 1 l 3.230469,3.640625 C 8.441406,14.894531 8.722656,15.003906 9,15 Z m 2.957031,2.980469 C 11.757812,4 11.5625,4.0625 11.394531,4.191406 c -0.441406,0.332032 -0.53125,0.960938 -0.195312,1.402344 1.074219,1.425781 1.074219,3.386719 0,4.8125 -0.335938,0.441406 -0.246094,1.070312 0.195312,1.402344 0.441407,0.332031 1.066407,0.242187 1.398438,-0.195313 C 13.597656,10.542969 14,9.273438 14,8 14,6.726562 13.597656,5.457031 12.792969,4.386719 12.609375,4.140625 12.328125,4.003906 12.039062,3.988281 c -0.02734,0 -0.05469,0 -0.08594,0 z m 0,0"
     fill="#2e3436"
     id="path2" />
</svg>
