<svg width="160" height="104" viewBox="0 0 42.333 27.517" xmlns="http://www.w3.org/2000/svg"><path style="color:#000;fill:#3584e4;fill-opacity:1;stroke-width:.26459;-inkscape-stroke:none" d="M5.261.003c-.841 0-1.536.694-1.536 1.536v24.439c0 .841.695 1.536 1.536 1.536h31.81c.842 0 1.537-.695 1.537-1.536V1.538c0-.84-.695-1.535-1.537-1.535zm0 1.058v.001h31.81c.274 0 .478.203.478.477v3.235H4.783V1.539c0-.274.204-.478.478-.478zM35.248 2.12l-.007.007h-.305v.308l-.004.005.477.472-.477.472.006.007h-.002v.31h.31l.002.003.002-.002h.004v-.005l.474-.469.481.476.003-.003h.313v-.31h-.006l.007-.007-.478-.472.478-.472-.003-.003h.002v-.31h-.308l-.007-.007-.482.476zM4.783 5.04H37.55v20.94a.466.466 0 0 1-.478.477H5.261a.466.466 0 0 1-.478-.478z"/></svg>