<svg xmlns="http://www.w3.org/2000/svg" style="isolation:isolate" viewBox="663.148 396.288 215.223 63.449" width="286.964" height="84.599"><defs><clipPath id="a"><path d="M663.148 396.288h215.223v63.449H663.148z"/></clipPath></defs><g clip-path="url(#a)"><path d="M858.142 459.636c-2.826 0-5.131-1.005-6.916-3.015-1.711-2.01-2.603-4.623-2.603-7.906 0-3.551.892-6.968 2.752-10.184 1.859-3.149 4.313-5.762 7.362-7.705 3.05-1.943 6.247-2.881 9.668-2.881 1.116 0 1.86.201 2.232.536.371.402.669 1.072.892 2.077.967-.201 2.008-.268 3.124-.268 1.189 0 2.082.268 2.751.804.67.536.967 1.273.967 2.278 0 1.005-.223 2.814-.744 5.36-.52 2.747-.966 5.293-1.264 7.772-.297 2.479-.446 5.293-.446 8.375 0 1.675-.372 2.881-1.116 3.618-.818.737-2.082 1.139-3.793 1.139-1.71 0-2.9-.402-3.792-1.139-.744-.737-1.19-1.876-1.19-3.551l.074-1.072c-1.562 3.819-4.165 5.762-7.958 5.762Zm2.901-6.767c1.413 0 2.677-.871 3.793-2.613 1.115-1.742 2.156-4.824 3.049-9.313l1.413-6.767c-2.008.067-3.942.737-5.652 2.077-1.711 1.407-3.124 3.216-4.165 5.427-1.041 2.211-1.562 4.623-1.562 7.102 0 1.34.298 2.345.893 3.015.52.737 1.264 1.072 2.231 1.072Z"/><path d="M721.063 459.636q-4.61 0-7.362-3.015t-2.752-7.906q0-5.36 2.752-10.15 2.752-4.791 7.325-7.705 4.574-2.915 9.706-2.915 1.636 0 2.193.57.558.569.93 2.043 1.562-.268 3.272-.268 3.645 0 3.645 2.345 0 1.407-1.116 6.7-1.711 7.705-1.711 10.72 0 1.005.558 1.608.558.603 1.45.603 1.414 0 3.421-1.641 2.008-1.642 5.429-5.327.893-.938 2.008-.938.967 0 1.525.804.558.804.558 2.211 0 2.68-1.413 4.154-3.049 3.417-6.47 5.762-3.421 2.345-6.619 2.345-2.455 0-4.5-1.507-2.045-1.508-3.086-4.121-3.867 5.628-9.743 5.628Zm2.678-6.767q1.636 0 3.123-1.742 1.488-1.742 2.157-4.623l2.752-12.328q-3.124.067-5.764 2.111-2.64 2.043-4.202 5.393-1.562 3.35-1.562 7.102 0 2.077.93 3.082t2.566 1.005Z" fill-rule="evenodd"/><path d="M752.243 459.636q-2.826 0-3.978-2.68-1.153-2.68-1.153-8.576 0-8.71 2.752-16.549.669-1.943 2.193-2.847 1.525-.905 4.277-.905 1.487 0 2.082.335.595.335.595 1.273 0 1.072-1.115 4.824-.744 2.68-1.19 4.69-.447 2.01-.744 4.958 2.454-5.762 5.503-9.38 3.049-3.618 5.987-5.159t5.392-1.541q4.834 0 4.834 4.355 0 2.613-1.636 9.447-1.413 5.829-1.413 7.705 0 2.68 2.156 2.68 1.488 0 3.533-1.641 2.045-1.642 5.466-5.327.893-.938 2.008-.938.967 0 1.525.804.558.804.558 2.211 0 2.68-1.413 4.154-3.198 3.551-6.88 5.829-3.681 2.278-8.366 2.278-3.793 0-5.727-1.976-1.933-1.977-1.933-5.729 0-1.876 1.041-6.7.967-4.221.967-5.829 0-1.072-.819-1.072-.966 0-2.714 2.245-1.748 2.244-3.57 5.929-1.822 3.685-2.937 7.772-.818 3.149-1.897 4.255-1.078 1.105-3.384 1.105ZM793.423 423.657q-3.123 0-4.685-1.306-1.562-1.307-1.562-3.652t2.046-3.919q2.045-1.575 5.094-1.575 2.752 0 4.462 1.206 1.711 1.206 1.711 3.417 0 2.68-1.934 4.255-1.934 1.574-5.132 1.574Z"/><path d="M792.829 459.636q-4.834 0-7.028-3.082t-2.194-8.174q0-3.015.855-7.738.855-4.724 2.194-8.811.669-2.144 1.785-2.948 1.115-.804 3.569-.804 3.793 0 3.793 2.278 0 1.675-1.413 7.772-1.785 7.37-1.785 9.983 0 2.01.595 3.082t2.008 1.072q1.339 0 3.347-1.675t5.355-5.293q.892-.938 2.008-.938.966 0 1.524.804t.558 2.211q0 2.68-1.413 4.154-7.363 8.107-13.758 8.107Z"/><path d="M829.918 444.461q.966 0 1.524.804t.558 2.211q0 2.68-1.413 4.154-3.198 3.551-6.954 5.829-3.755 2.278-8.515 2.278-6.545 0-9.705-5.36-3.161-5.36-3.161-13.869 0-8.174 2.343-18.626 2.342-10.452 6.916-17.956t10.895-7.504q3.57 0 5.615 2.981 2.045 2.982 2.045 8.543 0 7.973-4.908 18.492-4.908 10.519-13.312 20.837.52 2.747 1.71 3.919 1.19 1.173 3.124 1.173 3.049 0 5.354-1.575 2.306-1.574 5.876-5.393.892-.938 2.008-.938Zm-9.148-41.406q-1.71 0-3.867 5.561t-3.793 13.802q-1.636 8.241-1.785 15.812 5.28-7.839 8.404-15.712 3.124-7.872 3.124-14.371 0-5.092-2.083-5.092Z" fill-rule="evenodd"/><path d="M853.918 444.327q.966 0 1.524.804t.558 2.211q0 2.68-1.413 4.154-3.198 3.551-6.954 5.829-3.755 2.278-8.515 2.278-6.545 0-9.705-5.36-3.161-5.36-3.161-13.869 0-8.174 2.343-18.626 2.342-10.452 6.916-17.956t10.895-7.504q3.57 0 5.615 2.981 2.045 2.982 2.045 8.543 0 7.973-4.908 18.492-4.908 10.519-13.312 20.837.52 2.747 1.71 3.919 1.19 1.173 3.124 1.173 3.049 0 5.354-1.575 2.306-1.574 5.876-5.393.892-.938 2.008-.938Zm-9.148-41.406q-1.71 0-3.867 5.561t-3.793 13.802q-1.636 8.241-1.785 15.812 5.28-7.839 8.404-15.712 3.123-7.872 3.123-14.371 0-5.092-2.082-5.092ZM718.256 430.357q1.71 0 2.491.67.781.67.781 1.742 0 1.742-1.153 3.082-1.152 1.34-3.607 1.407-5.949.134-10.56-.804-5.28 9.983-12.755 16.583-7.474 6.599-14.985 6.599-7.735 0-11.528-8.107-3.792-8.107-3.792-21.909 0-11.792 1.859-21.172.669-3.484 1.896-4.723 1.227-1.24 4.202-1.24 4.909 0 4.909 3.819 0 .402-.149 1.474-2.231 12.06-2.231 21.842 0 10.251 1.896 15.578 1.897 5.326 5.689 5.326 3.868 0 8.404-4.824 4.537-4.824 8.33-12.127-4.537-2.546-6.842-6.599-2.306-4.054-2.306-9.347 0-5.293 1.822-8.944 1.822-3.652 4.983-5.461 3.161-1.809 7.028-1.809 4.76 0 7.549 3.082 2.788 3.082 2.788 8.442 0 7.705-3.718 16.817 3.942.603 8.999.603Zm-21.939-13.199q0 6.566 4.685 9.715 2.9-7.504 2.9-12.395 0-2.814-.818-4.12-.818-1.307-2.231-1.307-2.008 0-3.272 2.111-1.264 2.11-1.264 5.996Z" fill-rule="evenodd"/></g></svg>