<svg width="160" height="104" viewBox="0 0 42.333 27.517" xmlns="http://www.w3.org/2000/svg"><path style="color:#000;fill:#3584e4;fill-opacity:1;stroke-width:1.00002;-inkscape-stroke:none" d="M19.887.012v.002c-3.181 0-5.807 2.621-5.807 5.802v92.368c0 3.18 2.626 5.804 5.807 5.804h120.226c3.181 0 5.807-2.623 5.807-5.804V5.816c0-3.18-2.626-5.804-5.807-5.804H19.887zm0 4v.002h120.226c1.034 0 1.807.768 1.807 1.802v12.227H18.08V5.816c0-1.034.772-1.804 1.807-1.804zM118 8v6.012h6.012V8H118zm15.223.01-.028.025h-1.152v1.166l-.018.018 1.805 1.785-1.805 1.783.026.025h-.008v1.174h1.168l.01.01.01-.01h.013v-.015l1.793-1.774 1.818 1.797.01-.01h1.182v-1.173h-.022l.026-.024-1.805-1.783 1.805-1.785-.01-.012h.006V8.033h-1.164l-.026-.023-1.82 1.797-1.814-1.797zM119.5 9.5h3.012v3.012H119.5V9.5zm-15.5 3V14h6v-1.5h-6zm-85.92 6.543h123.84v79.143c0 1.034-.772 1.804-1.807 1.804H19.887c-1.034 0-1.807-.77-1.807-1.804V19.043z" transform="matrix(.26458 0 0 .26458 0 0)"/></svg>