<svg width="190" height="268" viewBox="0 0 50.27 70.909" xmlns="http://www.w3.org/2000/svg"><path style="color:#000;fill:#3584e4;fill-opacity:1;stroke-width:.264585;-inkscape-stroke:none" d="M11.373 44.644c-.582 0-1.059.476-1.059 1.058V65.81c0 .583.477 1.059 1.059 1.059H37.83c.582 0 1.059-.476 1.059-1.059V45.702c0-.582-.477-1.058-1.059-1.058zm0 .529H37.83c.298 0 .53.231.53.529V65.81c0 .298-.232.53-.53.53H11.373a.522.522 0 0 1-.53-.53v-3.967h13.763v-.265H10.844V45.702c0-.298.231-.53.529-.53z" transform="translate(.462 -2.646)"/><path style="color:#000;fill:#d6e6f9;fill-opacity:1;stroke:none;stroke-width:1.34029;-inkscape-stroke:none" d="M24.867 61.578v4.763h12.717c.396 0 .777-.278.777-.76v-4.003z" transform="translate(.462 -2.646)"/><path style="color:#000;fill:#3584e4;stroke-width:.26459;-inkscape-stroke:none" d="M24.196 60.908h14.835v4.672c0 .834-.738 1.431-1.447 1.431H24.196Zm1.34 1.34v3.423h12.048c.083 0 .106.04.106-.091v-3.332z" transform="translate(.462 -2.646)"/><path style="color:#000;fill:#3584e4;stroke-width:.264585;-inkscape-stroke:none" d="M11.381 7.602c-.582 0-1.058.477-1.058 1.059v20.108c0 .582.476 1.058 1.058 1.058H37.84c.582 0 1.058-.476 1.058-1.058V8.66A1.062 1.062 0 0 0 37.84 7.6zm0 .529H37.84c.297 0 .529.232.529.53v15.876H24.87v.265h13.498v3.967c0 .298-.232.529-.53.529H11.382a.522.522 0 0 1-.529-.53V8.662c0-.298.232-.53.53-.53z" transform="translate(.595 -1.058)"/><path style="color:#000;fill:#d6e6f9;fill-opacity:1;stroke-width:1.34029;-inkscape-stroke:none" d="M24.345 24.536V29.3H11.628c-.396 0-.777-.278-.777-.76v-4.003Z" transform="translate(.595 -1.058)"/><path style="color:#000;fill:#3584e4;stroke-width:.26459;-inkscape-stroke:none" d="M10.181 23.866v4.672c0 .834.738 1.431 1.447 1.431h13.388v-6.103h-.67Zm1.34 1.34h12.154v3.423H11.628c-.083 0-.106.04-.106-.091z" transform="translate(.595 -1.058)"/></svg>