<svg width="190" height="268" viewBox="0 0 50.27 70.909" xmlns="http://www.w3.org/2000/svg"><path style="color:#000;fill:#3584e4;fill-opacity:1;-inkscape-stroke:none" d="M517-272.639c-2.199 0-4 1.802-4 4v76c0 2.199 1.801 4 4 4h100c2.199 0 4-1.801 4-4v-76c0-2.198-1.801-4-4-4zm0 2h100c1.125 0 2 .875 2 2v76c0 1.126-.875 2-2 2H517c-1.125 0-2-.874-2-2v-76c0-1.125.875-2 2-2z" transform="translate(-124.888 77.164) scale(.26459)"/><path style="color:#000;fill:#3584e4;fill-opacity:1;-inkscape-stroke:none" d="M564.33-260.102c-9.597 0-17.432 7.835-17.432 17.432 0 9.597 7.835 17.43 17.432 17.43 9.597 0 17.43-7.833 17.43-17.43s-7.833-17.432-17.43-17.432zm0 5.067a12.327 12.327 0 0 1 12.365 12.365 12.327 12.327 0 0 1-12.365 12.365 12.327 12.327 0 0 1-12.365-12.365 12.327 12.327 0 0 1 12.365-12.365z" transform="translate(-124.888 77.164) scale(.26459)"/><path style="color:#000;fill:#d6e6f9;fill-opacity:1;stroke-width:4;stroke-linecap:round;stroke-linejoin:round;-inkscape-stroke:none" d="M564.572-248.439a6.518 6.518 0 0 0-6.422 6.61v42.388s-.066-4.125-.066-8.978a6.518 6.518 0 1 0-13.035 0v29.781h56.899c4.388 0 8.123-3.739 8.123-8.127v-20.043a6.518 6.518 0 0 0-6.613-6.61c-3.302.054-5.855 2.569-6.191 5.854h-.23v-7.767c.052-3.676-2.755-6.668-6.43-6.612a6.518 6.518 0 0 0-6.418 6.612v7.767h-.122v-7.767c.053-3.676-2.755-6.668-6.43-6.612a6.518 6.518 0 0 0-6.418 6.612v7.767h-.033v-34.265a6.518 6.518 0 0 0-6.614-6.61z" transform="translate(-124.888 77.164) scale(.26459)"/><path style="color:#000;fill:#3584e4;fill-opacity:1;stroke-linecap:round;stroke-linejoin:round;-inkscape-stroke:none" d="M564.543-250.44c-4.678.07-8.459 3.96-8.393 8.64v26.318c-1.378-.914-2.938-1.571-4.709-1.545-4.678.069-8.458 3.958-8.392 8.636v29.752a2 2 0 0 0 2 2h56.898c5.524 0 10.123-4.604 10.123-10.127v-20.013c.068-4.775-3.868-8.707-8.642-8.637a2 2 0 0 0-.002 0c-1.661.027-3.112.656-4.389 1.527v-1.443l-.002.03c.068-4.71-3.683-8.713-8.459-8.64-2.637.04-4.892 1.365-6.43 3.29-1.539-1.977-3.823-3.331-6.54-3.29-1.662.026-3.118.655-4.42 1.508V-241.8c.067-4.759-3.846-8.675-8.6-8.63a2 2 0 0 0-.014-.009v.006c-.01 0-.019-.006-.03-.006zm.059 4a4.487 4.487 0 0 1 4.584 4.583 2 2 0 0 0 0 .027v34.266a2 2 0 0 0 2 2h.033a2 2 0 0 0 2-2v-7.768a2 2 0 0 0 0-.027 4.49 4.49 0 0 1 4.449-4.584c2.575-.04 4.437 1.942 4.398 4.584a2 2 0 0 0 0 .027v7.768a2 2 0 0 0 2 2h.123a2 2 0 0 0 2-2v-7.768a2 2 0 0 0-.002-.027 4.49 4.49 0 0 1 4.45-4.584c2.574-.04 4.438 1.942 4.4 4.584a2 2 0 0 0 0 .027v7.768a2 2 0 0 0 2 2h.229a2 2 0 0 0 1.99-1.795c.242-2.368 1.93-4.021 4.232-4.059a4.487 4.487 0 0 1 4.584 4.582 2 2 0 0 0-.002.027v20.043c0 3.253-2.871 6.127-6.123 6.127H547.05v-27.781a2 2 0 0 0 0-.027 4.488 4.488 0 0 1 4.45-4.582 4.487 4.487 0 0 1 4.585 4.582 2 2 0 0 0 0 .027c0 4.853.066 8.948.066 8.978v.034a2 2 0 0 0 4-.034v-42.388a2 2 0 0 0 0-.027 4.488 4.488 0 0 1 4.451-4.582z" transform="translate(-124.888 77.164) scale(.26459)"/><path style="color:#000;fill:#3584e4;fill-opacity:1;-inkscape-stroke:none" d="M11.906 44.451a1.06 1.06 0 0 0-1.058 1.057v20.11c0 .58.477 1.058 1.058 1.058h26.46a1.06 1.06 0 0 0 1.056-1.059v-20.11a1.06 1.06 0 0 0-1.057-1.056zm0 .528h26.46c.297 0 .529.231.529.529v20.11a.522.522 0 0 1-.53.528H11.906a.523.523 0 0 1-.529-.529v-20.11c0-.297.232-.528.53-.528z" transform="translate(0 -3.577)"/><g style="display:inline"><path style="color:#000;fill:#3584e4;stroke-linecap:round;-inkscape-stroke:none" d="M-303.027 359.256a10.274 10.274 0 0 0-8.625 5.687 1.652 1.652 0 0 0 .748 2.213 1.652 1.652 0 0 0 2.213-.746 6.931 6.931 0 0 1 8.304-3.549 6.93 6.93 0 0 1 4.795 7.653 6.928 6.928 0 0 1-6.812 5.925 1.652 1.652 0 0 0-1.639 1.668 1.652 1.652 0 0 0 1.666 1.637c5.035-.043 9.315-3.765 10.055-8.746.74-4.98-2.273-9.784-7.078-11.289a10.194 10.194 0 0 0-3.627-.453z" transform="translate(151.24 -102.228) scale(.4057)"/><path style="color:#000;fill:#3584e4;stroke-linecap:round;-inkscape-stroke:none" d="M-313.8 364.203c-3.91.745-7.207 3.746-8.116 7.861-1.213 5.487 2.259 10.964 7.738 12.21 5.48 1.245 10.978-2.193 12.256-7.665a1.652 1.652 0 0 0-1.232-1.984 1.652 1.652 0 0 0-1.985 1.232 6.924 6.924 0 0 1-8.306 5.196 6.924 6.924 0 0 1-5.244-8.276 6.925 6.925 0 0 1 8.244-5.295 1.652 1.652 0 0 0 1.96-1.267 1.652 1.652 0 0 0-1.267-1.963 10.175 10.175 0 0 0-4.049-.049z" transform="translate(151.24 -102.228) scale(.4057)"/><path style="color:#000;fill:#d6e6f9;fill-opacity:1;stroke-width:4;stroke-linecap:round;stroke-linejoin:round;-inkscape-stroke:none" d="M-23.607 932.367c-3.398 0-6.147 2.863-6.135 6.418v36.516h-.158v-28.85c0-3.555-3-6.418-6.398-6.418-3.398 0-6.133 2.863-6.133 6.418v37.115h-.283v-7.982c0-3.555-2.472-6.418-5.87-6.418s-6.133 2.863-6.133 6.418v25.916H1.11c1.91 0 3.613-.907 4.736-2.332.874-1.109 1.391-2.53 1.396-4.086v-24.039c0-3.555-2.735-6.418-6.132-6.418-3.398 0-6.003 2.863-6.003 6.418v4.258h-.158v-10.71c0-3.555-2.735-6.415-6.133-6.415-3.397 0-6.132 2.86-6.132 6.416V975.3h-.159v-36.516c0-3.555-2.735-6.418-6.132-6.418z" transform="translate(34.602 -200.027) scale(.26459)"/><path style="color:#000;fill:#3584e4;fill-opacity:1;stroke-linecap:round;stroke-linejoin:round;-inkscape-stroke:none" d="M-23.607 930.367c-4.522 0-8.15 3.836-8.135 8.426v.795c-1.344-.904-2.862-1.555-4.557-1.555-4.521 0-8.133 3.837-8.133 8.418v22.15c-1.205-.826-2.561-1.435-4.152-1.435-4.521 0-8.133 3.837-8.133 8.418v25.916a2 2 0 0 0 2 2H1.11c2.543 0 4.83-1.222 6.306-3.094a8.626 8.626 0 0 0 1.826-5.318 2 2 0 0 0 0-.006v-24.039c0-4.581-3.611-8.418-8.133-8.418-1.62 0-3.017.622-4.257 1.47-.262-4.346-3.688-7.92-8.036-7.92-1.617 0-3.03.616-4.29 1.456v-18.846c0-4.58-3.612-8.418-8.133-8.418zm0 4c2.274 0 4.132 1.888 4.132 4.418v36.516a2 2 0 0 0 2 2h.159a2 2 0 0 0 2-2v-10.71c0-2.529 1.857-4.415 4.132-4.415 2.276 0 4.133 1.886 4.133 4.416V975.3a2 2 0 0 0 2 2h.158a2 2 0 0 0 2-2v-4.258c0-2.579 1.728-4.418 4.002-4.418 2.275 0 4.133 1.888 4.133 4.418v24.034c-.004 1.115-.37 2.096-.967 2.853-.77.977-1.888 1.57-3.166 1.57h-53.826v-23.916c0-2.53 1.858-4.418 4.133-4.418s3.87 1.79 3.87 4.418v7.982a2 2 0 0 0 2 2h.282a2 2 0 0 0 2-2V946.45c0-2.53 1.859-4.418 4.133-4.418 2.275 0 4.399 1.988 4.399 4.418v28.85a2 2 0 0 0 2 2h.158a2 2 0 0 0 2-2v-36.516a2 2 0 0 0 0-.008c-.009-2.52 1.86-4.41 4.135-4.41z" transform="translate(34.602 -200.027) scale(.26459)"/></g></svg>