<svg width="190" height="134" viewBox="0 0 50.27 35.454" xmlns="http://www.w3.org/2000/svg"><defs><clipPath clipPathUnits="userSpaceOnUse" id="a"><path style="opacity:1;vector-effect:none;fill:#f6f5f4;fill-opacity:.996063;fill-rule:nonzero;stroke:#000;stroke-width:5.066;stroke-linecap:round;stroke-linejoin:miter;stroke-miterlimit:4;stroke-dasharray:none;stroke-dashoffset:0;stroke-opacity:1;marker:none;marker-start:none;marker-mid:none;marker-end:none;paint-order:normal" d="M692.258 437.886h164.756v118.087H692.258z"/></clipPath></defs><path style="color:#000;fill:#3584e4;-inkscape-stroke:none" d="M12.422 6.484c-.582 0-1.059.477-1.059 1.059v20.11c0 .581.477 1.058 1.059 1.058H38.88c.582 0 1.058-.477 1.058-1.059V7.543c0-.582-.476-1.059-1.058-1.059zm0 .53H38.88c.298 0 .53.231.53.529v20.11a.523.523 0 0 1-.53.529H12.42a.523.523 0 0 1-.528-.53V7.543c0-.298.231-.53.529-.53z"/><g clip-path="url(#a)" transform="translate(-179.918 -113.867) scale(.26459)"><g style="opacity:.28"><path style="color:#000;fill:#3584e4;stroke-width:1.01291;-inkscape-stroke:none" d="M809.423 455.918h17.648c1.604 0 2.896 1.258 2.896 2.822v75.8c0 1.563-1.292 2.822-2.896 2.822h-17.648c-1.604 0-2.895-1.259-2.895-2.822v-75.8c0-1.564 1.29-2.822 2.895-2.822z"/><path style="color:#000;fill:#3584e4;-inkscape-stroke:none" d="M809.424 455.41c-1.87 0-3.403 1.488-3.403 3.33v75.801c0 1.842 1.534 3.328 3.403 3.328h17.646c1.87 0 3.403-1.486 3.403-3.328v-75.8c0-1.843-1.534-3.33-3.403-3.33zm0 1.014h17.646c1.34 0 2.39 1.032 2.39 2.316v75.801c0 1.285-1.05 2.314-2.39 2.314h-17.646c-1.34 0-2.39-1.03-2.39-2.314v-75.8c0-1.285 1.05-2.317 2.39-2.317z"/></g><path d="M818.522 493.072a6.518 6.518 0 0 0-6.422 6.61v42.389s-.066-4.126-.066-8.979a6.518 6.518 0 1 0-13.036 0v29.781h56.9c4.388 0 8.123-3.739 8.123-8.127v-20.043a6.518 6.518 0 0 0-6.613-6.61c-3.303.054-5.856 2.569-6.192 5.854h-.23v-7.767c.053-3.676-2.755-6.668-6.43-6.611a6.518 6.518 0 0 0-6.418 6.61v7.768h-.122v-7.767c.053-3.676-2.754-6.668-6.43-6.611a6.518 6.518 0 0 0-6.417 6.61v7.768h-.034v-34.265a6.518 6.518 0 0 0-6.613-6.61z" style="color:#000;font-style:normal;font-variant:normal;font-weight:400;font-stretch:normal;font-size:medium;line-height:normal;font-family:sans-serif;font-variant-ligatures:normal;font-variant-position:normal;font-variant-caps:normal;font-variant-numeric:normal;font-variant-alternates:normal;font-feature-settings:normal;text-indent:0;text-align:start;text-decoration:none;text-decoration-line:none;text-decoration-style:solid;text-decoration-color:#000;letter-spacing:normal;word-spacing:normal;text-transform:none;writing-mode:lr-tb;direction:ltr;text-orientation:mixed;dominant-baseline:auto;baseline-shift:baseline;text-anchor:start;white-space:normal;shape-padding:0;clip-rule:nonzero;display:inline;overflow:visible;visibility:visible;opacity:1;isolation:auto;mix-blend-mode:normal;color-interpolation:sRGB;color-interpolation-filters:linearRGB;solid-color:#000;solid-opacity:1;vector-effect:none;fill:#d6e6f9;fill-opacity:1;fill-rule:nonzero;stroke:#3584e4;stroke-width:4;stroke-linecap:round;stroke-linejoin:round;stroke-miterlimit:4;stroke-dasharray:none;stroke-dashoffset:0;stroke-opacity:1;color-rendering:auto;image-rendering:auto;shape-rendering:auto;text-rendering:auto;enable-background:accumulate"/></g><g style="display:inline;enable-background:new"><path style="color:#000;font-style:normal;font-variant:normal;font-weight:400;font-stretch:normal;font-size:medium;line-height:normal;font-family:sans-serif;font-variant-ligatures:normal;font-variant-position:normal;font-variant-caps:normal;font-variant-numeric:normal;font-variant-alternates:normal;font-feature-settings:normal;text-indent:0;text-align:start;text-decoration:none;text-decoration-line:none;text-decoration-style:solid;text-decoration-color:#000;letter-spacing:normal;word-spacing:normal;text-transform:none;writing-mode:lr-tb;direction:ltr;text-orientation:mixed;dominant-baseline:auto;baseline-shift:baseline;text-anchor:start;white-space:normal;shape-padding:0;clip-rule:nonzero;display:inline;overflow:visible;visibility:visible;opacity:1;isolation:auto;mix-blend-mode:normal;color-interpolation:sRGB;color-interpolation-filters:linearRGB;solid-color:#000;solid-opacity:1;vector-effect:none;fill:#3584e4;fill-opacity:1;fill-rule:nonzero;stroke:none;stroke-width:2;stroke-linecap:butt;stroke-linejoin:miter;stroke-miterlimit:4;stroke-dasharray:none;stroke-dashoffset:0;stroke-opacity:1;marker:none;color-rendering:auto;image-rendering:auto;shape-rendering:auto;text-rendering:auto;enable-background:accumulate" d="m817.95 1744.148-3.72 3.72a1.014 1.014 0 0 0-.28.718v1h1c.265 0 .53-.093.718-.281l1.281-1.282v7.125l-1.281-1.28a1.015 1.015 0 0 0-.719-.282h-1v1c0 .265.093.53.281.719l3.72 3.718 3.718-3.718c.188-.188.281-.454.281-.72v-1h-1c-.265 0-.53.094-.719.282l-1.28 1.281v-7.125l1.28 1.282c.189.188.454.28.72.28h1v-1c0-.264-.094-.53-.282-.718z" transform="translate(-179.918 -451.911) scale(.26459)"/></g></svg>