<svg width="190" height="190" viewBox="0 0 50.27 50.271" xmlns="http://www.w3.org/2000/svg"><path style="color:#000;fill:#3584e4;fill-opacity:1;-inkscape-stroke:none" d="M47.934 18.068c-3.181 0-5.805 2.624-5.805 5.805v92.365c0 3.181 2.624 5.805 5.805 5.805h92.261c3.181 0 5.805-2.624 5.805-5.805V91.52h-.557L142 103.514v12.724c0 1.034-.77 1.805-1.805 1.805H47.934c-1.034 0-1.805-.77-1.805-1.805v-79.14H142v42.435l4 4.799V23.873c0-3.18-2.624-5.805-5.805-5.805H47.934zm0 4h92.261c1.034 0 1.805.771 1.805 1.805v12.225H46.129V23.873c0-1.034.77-1.805 1.805-1.805zm85.369 3.998-.026.026h-1.152v1.166l-.018.017 1.805 1.786-1.805 1.783.026.025h-.008v1.174h1.168l.01.01.01-.01h.013v-.016l1.793-1.773 1.819 1.797.01-.01h1.18v-1.174h-.02l.025-.023-1.805-1.783 1.805-1.786-.01-.011h.006V26.09h-1.166l-.025-.024-1.819 1.797-1.816-1.797zM91 64.645v1c0 .276.113.524.293.705v.002l.006.003L97 72.057l5.701-5.702.006-.005a.995.995 0 0 0 .293-.705v-1h-1a.994.994 0 0 0-.707.29L97 69.23l-4.293-4.293a.994.994 0 0 0-.707-.291h-1zm0 8v1c0 .276.113.524.293.705v.002l.006.003L97 80.057l5.701-5.702.006-.005a.995.995 0 0 0 .293-.705v-1h-1a.994.994 0 0 0-.707.29L97 77.23l-4.293-4.293a.994.994 0 0 0-.707-.291h-1zm0 8v1c0 .276.113.524.293.705v.002l.006.003L97 88.057l5.701-5.702.006-.005a.995.995 0 0 0 .293-.705v-1h-1a.994.994 0 0 0-.707.29L97 85.23l-4.293-4.293a.994.994 0 0 0-.707-.291h-1zm51 4.937v3.897l.525-1.83h1.198L142 85.581z" transform="scale(.26459)"/><path style="color:#000;clip-rule:nonzero;display:inline;overflow:visible;visibility:visible;opacity:1;isolation:auto;mix-blend-mode:normal;color-interpolation:sRGB;color-interpolation-filters:linearRGB;solid-color:#000;solid-opacity:1;fill:none;fill-opacity:1;fill-rule:nonzero;stroke:none;stroke-width:1;stroke-linecap:butt;stroke-linejoin:miter;stroke-miterlimit:4;stroke-dasharray:none;stroke-dashoffset:0;stroke-opacity:1;marker:none;marker-start:none;marker-mid:none;marker-end:none;paint-order:normal;color-rendering:auto;image-rendering:auto;shape-rendering:auto;text-rendering:auto;enable-background:accumulate" d="M514.408-711.649h104.021v104.021H514.408z" transform="translate(-124.885 193.062) scale(.26459)"/><path style="color:#bebebe;display:inline;overflow:visible;visibility:visible;fill:none;stroke:none;stroke-width:1;marker:none;enable-background:new" transform="matrix(0 .26459 .26459 0 -185.475 -132.286)" d="M571.62 790h16v16h-16z"/><path transform="matrix(0 .26459 .26459 0 -185.475 -132.286)" style="color:#bebebe;display:inline;overflow:visible;visibility:visible;fill:none;stroke:none;stroke-width:1;marker:none;enable-background:new" d="M565.62 790h16v16h-16z"/><path style="color:#bebebe;display:inline;overflow:visible;visibility:visible;fill:none;stroke:none;stroke-width:1;marker:none;enable-background:new" transform="matrix(0 .26459 .26459 0 -185.475 -132.286)" d="M559.62 790h16v16h-16z"/><path style="color:#000;clip-rule:nonzero;display:inline;overflow:visible;visibility:visible;isolation:auto;mix-blend-mode:normal;color-interpolation:sRGB;color-interpolation-filters:linearRGB;solid-color:#000;solid-opacity:1;fill:none;fill-opacity:1;fill-rule:nonzero;stroke:none;stroke-width:.264585;stroke-linecap:butt;stroke-linejoin:miter;stroke-miterlimit:4;stroke-dasharray:none;stroke-dashoffset:0;stroke-opacity:1;marker:none;marker-start:none;marker-mid:none;marker-end:none;paint-order:normal;color-rendering:auto;image-rendering:auto;shape-rendering:auto;text-rendering:auto;enable-background:accumulate" d="M12.811 4.76h27.523v27.523H12.811z"/><path style="color:#bebebe;display:inline;overflow:visible;visibility:visible;fill:none;stroke:none;stroke-width:1;marker:none;enable-background:new" transform="matrix(0 .26459 .26459 0 -184.68 -132.296)" d="M571.62 790h16v16h-16z"/><path transform="matrix(0 .26459 .26459 0 -184.68 -132.296)" style="color:#bebebe;display:inline;overflow:visible;visibility:visible;fill:none;stroke:none;stroke-width:1;marker:none;enable-background:new" d="M565.62 790h16v16h-16z"/><path style="color:#bebebe;display:inline;overflow:visible;visibility:visible;fill:none;stroke:none;stroke-width:1;marker:none;enable-background:new" transform="matrix(0 .26459 .26459 0 -184.68 -132.296)" d="M559.62 790h16v16h-16z"/><path style="color:#000;fill:#d6e6f9;fill-opacity:1;stroke-width:10.1481;stroke-linejoin:round;-inkscape-stroke:none" d="M453.014 123.03v.125c-.444-.02-.895-.02-1.313-.031h-.061v-.031c-.86 0-1.658.062-2.495.083l2.41 8.622 2.434-8.731c-.329-.003-.645-.036-.975-.036zm20.893 2.475 5.026 6.194H462l-10.446 37.39-10.451-37.39H424.17l4.511-5.556c-20.105 5.889-30.75 19.414-35.577 32.481-4.165 11.276-2.563 24.583-.904 38.064.617 5.014 1.387 10.378 2.248 15.906.052 1.534.098 3.02.066 4.248-.482 18.033-6.739 40.147-6.375 53.752.673 25.188 14.156 41.815 32.091 50.312.283.133.56.275.844.404 20.532 9.975 44.842 10.701 64.532-1.997 17.006-9.046 29.374-25.397 29.374-48.72 0-13.608-5.893-35.718-6.375-53.75-.196-7.32 1.44-21.904 1.44-21.904 1.536-7.242 2.641-15.025 2.343-22.593-.004-.103.005-.213 0-.316-.111-3.856-.64-7.561-1.687-11.03-.118-.39-.241-.772-.374-1.156-.1-.326-.173-.648-.282-.97-.607-1.792-1.423-3.61-2.375-5.406-.067-.139-.154-.268-.222-.405-7.993-16.061-19.825-24.014-33.541-27.558z" transform="matrix(.1023 0 0 .09961 -8.895 10.924)"/><path style="color:#000;fill:#3584e4;fill-opacity:1;stroke-width:.381531;stroke-linejoin:round;-inkscape-stroke:none" d="m140.975 80.184-.498.593-7.334 8.803h4.763l3.069 10.688 3.066-10.688h4.764l-7.83-9.396zm6.65 5.964 3.936 4.723h-.694c.641.221 1.27.463 1.873.748.648.307 1.259.683 1.865 1.07 2.775 1.944 5.12 4.86 6.833 9.188 1.556 3.933.784 9.155-.051 13.766l-.772 4.15c-5.839-1.466-11.57-2.708-18.998-2.777v-1.961c2.836-.275 5.076-2.648 5.076-5.553V96.486a5.6 5.6 0 0 0-2.048-4.326l-.723 2.514c.33.521.525 1.139.525 1.812v13.016a3.33 3.33 0 0 1-3.365 3.361 3.33 3.33 0 0 1-3.363-3.361V96.486c0-.563.145-1.082.38-1.545l-.751-2.623a5.587 5.587 0 0 0-1.875 4.168v13.016c0 3.05 2.462 5.534 5.498 5.596v1.89h-.008c-8.024-.005-14.019 1.382-20.248 2.955a177.613 177.613 0 0 1-.58-4.28c-.592-4.907-1.144-9.703.304-13.706 1.264-3.493 3.643-7.078 7.71-9.547l.01-.006a20.533 20.533 0 0 1 3.587-1.533h-1.36l3.75-4.5c-9.928 1.957-15.365 8.081-17.6 13.975-1.842 4.852-1.1 10.146-.458 15.224.237 1.871.532 3.865.858 5.909.018.533.033 1.041.023 1.396-.175 6.389-2.623 14.576-2.465 20.338.278 10.142 6.044 17.164 13.53 20.617.06.028.172.083.308.145.002 0 .004 0 .006.002 8.437 3.989 18.572 4.313 26.822-.844 7.042-3.687 12.3-10.56 12.3-19.97 0-5.676-2.29-13.873-2.466-20.288-.066-2.401.544-7.965.545-7.977.595-2.769 1.04-5.775.918-8.798v-.002a1.13 1.13 0 0 0-.002-.114c-.048-1.585-.272-3.142-.734-4.632a13.18 13.18 0 0 0-.149-.452c-.008-.025-.039-.162-.125-.41a15.564 15.564 0 0 0-1.035-2.3.99.99 0 0 0-.068-.127c-2.457-4.807-5.914-7.998-9.889-9.88-2.162-1.023-4.46-1.658-6.83-2.035zm-6.662 31.485c7.712-.005 13.516 1.285 19.535 2.797l-5.96 32.105.632.117 5.95-32.045a33.55 33.55 0 0 0-.048 2.37c.197 7.162 2.465 15.613 2.465 20.185 0 8.105-4.26 13.517-10.318 16.654a1.962 1.91 0 0 0-.14.082c-6.967 4.375-15.607 4.153-23.032.641a1.962 1.91 0 0 0-.043-.021l-.3-.141c-6.385-2.945-11.046-8.441-11.288-17.266-.114-4.162 1.918-11.748 2.37-18.568.976 5.967 2.186 12.3 3.355 17.98l.632-.132c-1.421-6.914-2.927-14.83-3.964-21.807 6.243-1.578 12.176-2.956 20.154-2.951z" transform="scale(.26459)"/><g style="fill:#3584e4;fill-opacity:1"><path style="color:#000;fill:#3584e4;stroke-width:.5;-inkscape-stroke:none;fill-opacity:1" d="M460.5 28.862v23" transform="translate(-118.778 13.33) scale(.34147)"/></g></svg>