<svg width="190" height="190" viewBox="0 0 50.27 50.271" xmlns="http://www.w3.org/2000/svg"><path style="color:#000;fill:#3584e4;-inkscape-stroke:none;fill-opacity:1" d="M47.934 18.03c-3.181 0-5.805 2.623-5.805 5.804v92.365c0 3.181 2.624 5.805 5.805 5.805h92.261c3.181 0 5.805-2.624 5.805-5.805V23.834c0-3.18-2.624-5.805-5.805-5.805H47.934zm0 4h92.261c1.034 0 1.805.77 1.805 1.804v12.225H46.129V23.834c0-1.034.77-1.805 1.805-1.805zm85.369 3.997-.026.026h-1.152v1.166l-.018.017 1.805 1.785-1.805 1.784.026.025h-.008v1.174h1.168l.01.01.01-.01h.013v-.016l1.793-1.773 1.819 1.797.01-.01h1.18v-1.174h-.02l.025-.023-1.805-1.784 1.805-1.785-.01-.011h.006V26.05h-1.166l-.025-.024-1.819 1.797-1.816-1.797zM46.129 37.06H142v79.14c0 1.034-.77 1.805-1.805 1.805H47.934c-1.034 0-1.805-.77-1.805-1.805V37.06zM91 64.605v1c0 .277.113.525.293.706v.001l.006.004L97 72.018l5.701-5.702.006-.005a.995.995 0 0 0 .293-.706v-1h-1a.994.994 0 0 0-.707.291L97 69.19l-4.293-4.293a.994.994 0 0 0-.707-.29h-1zm0 8v1c0 .277.113.525.293.706v.001l.006.004L97 80.018l5.701-5.702.006-.005a.995.995 0 0 0 .293-.706v-1h-1a.994.994 0 0 0-.707.291L97 77.19l-4.293-4.293a.994.994 0 0 0-.707-.29h-1zm0 8v1c0 .277.113.525.293.706v.001l.006.004L97 88.018l5.701-5.702.006-.005a.995.995 0 0 0 .293-.706v-1h-1a.994.994 0 0 0-.707.291L97 85.19l-4.293-4.293a.994.994 0 0 0-.707-.29h-1z" transform="scale(.26459)"/><path style="color:#000;clip-rule:nonzero;display:inline;overflow:visible;visibility:visible;opacity:1;isolation:auto;mix-blend-mode:normal;color-interpolation:sRGB;color-interpolation-filters:linearRGB;solid-color:#000;solid-opacity:1;fill:none;fill-opacity:1;fill-rule:nonzero;stroke:none;stroke-width:1;stroke-linecap:butt;stroke-linejoin:miter;stroke-miterlimit:4;stroke-dasharray:none;stroke-dashoffset:0;stroke-opacity:1;marker:none;marker-start:none;marker-mid:none;marker-end:none;paint-order:normal;color-rendering:auto;image-rendering:auto;shape-rendering:auto;text-rendering:auto;enable-background:accumulate" d="M514.408-711.649h104.021v104.021H514.408z" transform="translate(-124.885 193.051) scale(.26459)"/><path style="color:#bebebe;display:inline;overflow:visible;visibility:visible;fill:none;stroke:none;stroke-width:1;marker:none;enable-background:new" transform="matrix(0 .26459 .26459 0 -185.475 -132.296)" d="M571.62 790h16v16h-16z"/><path transform="matrix(0 .26459 .26459 0 -185.475 -132.296)" style="color:#bebebe;display:inline;overflow:visible;visibility:visible;fill:none;stroke:none;stroke-width:1;marker:none;enable-background:new" d="M565.62 790h16v16h-16z"/><path style="color:#bebebe;display:inline;overflow:visible;visibility:visible;fill:none;stroke:none;stroke-width:1;marker:none;enable-background:new" transform="matrix(0 .26459 .26459 0 -185.475 -132.296)" d="M559.62 790h16v16h-16z"/><path style="color:#000;fill:#d6e6f9;stroke-width:10.1481;stroke-linejoin:round;-inkscape-stroke:none;fill-opacity:1" d="M464.469 123.031v.125c-.444-.02-.894-.02-1.313-.031h-.062v-.031c-35.473 0-52.121 18.179-58.531 35.531-4.166 11.276-2.566 24.582-.907 38.063.617 5.014 1.39 10.378 2.25 15.906.053 1.534.096 3.022.063 4.25-.482 18.032-6.739 40.145-6.375 53.75.673 25.188 14.158 41.815 32.094 50.312.282.134.559.277.843.407 20.532 9.974 44.842 10.698 64.531-2 17.007-9.046 29.375-25.397 29.375-48.72 0-13.608-5.893-35.717-6.375-53.75-.195-7.319 1.438-21.905 1.438-21.905 1.536-7.243 2.642-15.026 2.344-22.594-.004-.104.005-.21 0-.313-.112-3.856-.641-7.562-1.688-11.03a31.21 31.21 0 0 0-.375-1.157c-.1-.325-.172-.646-.281-.969-.607-1.792-1.424-3.61-2.375-5.406-.068-.138-.15-.27-.219-.406-11.84-23.793-32.008-30.032-54.437-30.032z" transform="matrix(.10444 0 0 .10169 -10.909 10.247)"/><path style="color:#000;fill:#3584e4;stroke-width:.389489;stroke-linejoin:round;-inkscape-stroke:none;fill-opacity:1" d="m142.104 84.064.05.05c-.214-.009-.398-.01-.511-.012a2.003 1.95 0 0 0-.006 0l-.045-.002a2.003 1.95 0 0 0-.031-.012c-14.686 0-22.218 7.648-24.98 14.932-1.88 4.953-1.123 10.356-.468 15.54.242 1.91.543 3.946.875 6.032.019.544.034 1.064.024 1.426-.18 6.522-2.68 14.879-2.518 20.761.284 10.353 6.17 17.522 13.813 21.047.062.029.177.086.316.149l.004.002c8.613 4.072 18.96 4.403 27.383-.862 7.189-3.763 12.556-10.78 12.556-20.386 0-5.794-2.337-14.163-2.517-20.711-.067-2.452.555-8.13.556-8.143.608-2.827 1.06-5.896.936-8.982v-.002c.004.1.005.018 0-.116-.05-1.618-.278-3.208-.75-4.73-.05-.159-.1-.312-.152-.461-.009-.026-.04-.166-.127-.418a15.895 15.895 0 0 0-1.127-2.478c-2.508-4.907-6.036-8.166-10.094-10.086-4.058-1.921-8.575-2.538-13.187-2.538zm.072.069.22.217a2.003 1.95 0 0 0-.189 0 2.003 1.95 0 0 0-.184-.075l.153-.142zm-.041 3.834c4.228.003 8.108.582 11.404 2.142.678.321 1.321.712 1.955 1.12 2.812 1.983 5.185 4.957 6.924 9.351 1.59 4.015.8 9.346-.053 14.053l-.787 4.236c-3.317-.832-6.59-1.6-10.146-2.13l-.493.591c3.692.53 7.07 1.326 10.518 2.191l-6.082 32.774.645.121 6.074-32.72a34.97 34.97 0 0 0-.05 2.425c.202 7.312 2.517 15.94 2.517 20.608 0 8.273-4.347 13.798-10.532 17.001a2.003 1.95 0 0 0-.144.083c-7.112 4.465-15.932 4.24-23.512.654a2.003 1.95 0 0 0-.045-.022l-.307-.142c-6.516-3.006-11.274-8.619-11.521-17.627-.116-4.24 1.947-11.959 2.414-18.908.997 6.071 2.242 12.532 3.43 18.306l.644-.133c-1.451-7.057-2.988-15.14-4.047-22.261 3.676-.93 7.248-1.79 11.174-2.352l-.496-.594c-3.78.564-7.24 1.397-10.773 2.29-.22-1.505-.424-2.98-.592-4.37-.604-5.008-1.166-9.906.312-13.992 1.291-3.568 3.72-7.23 7.877-9.75 3.141-1.736 7.286-2.863 12.754-2.912v2h.66v-1.994c.049 0 .12.002.157.004a2.003 1.95 0 0 0 .12-.043zm-.672 2.09c-3.055 0-5.55 2.494-5.55 5.548v14.325c0 1.673.75 3.175 1.929 4.195l.75-2.617a3.3 3.3 0 0 1-.395-1.578V95.605a3.235 3.235 0 0 1 3.266-3.267h.129a3.235 3.235 0 0 1 3.265 3.267v14.325a3.3 3.3 0 0 1-.394 1.578l.75 2.617a5.538 5.538 0 0 0 1.93-4.195V95.605c0-3.054-2.496-5.548-5.551-5.548h-.13zm.064 16.005-3.13 10.91h-4.864l7.994 9.594.508-.607 7.488-8.986h-4.863l-3.133-10.91z" transform="scale(.26459)"/></svg>