<svg width="190" height="134" viewBox="0 0 50.27 35.454" xmlns="http://www.w3.org/2000/svg"><path style="opacity:.1;fill:#3584e4;stroke-width:1" d="M92.5 15A42.5 42.5 0 0 0 50 57.5a42.5 42.5 0 0 0 41.955 42.48V50.44l33.033 34.417A42.5 42.5 0 0 0 135 57.5 42.5 42.5 0 0 0 92.5 15zm19.248 71.676 3.205 6.875a42.5 42.5 0 0 0 8.434-6.875h-11.639zm-7.918 4.81-8.607 8.412a42.5 42.5 0 0 0 11.55-2.398l-2.943-6.014z" transform="scale(.26458)"/><path style="opacity:.28;fill:#3584e4;fill-opacity:1;stroke-width:.343957" d="M24.474 6.88a8.599 8.599 0 0 0-8.6 8.598 8.599 8.599 0 0 0 8.455 8.593V13.345l7.01 7.302a8.599 8.599 0 0 0 1.733-5.169 8.599 8.599 0 0 0-8.598-8.599z"/><path style="fill:#3584e4;fill-opacity:1;stroke-width:.29104" d="M24.474 8.202a7.276 7.276 0 0 0-7.276 7.276 7.276 7.276 0 0 0 7.131 7.27v-9.403l6.08 6.334a7.276 7.276 0 0 0 1.34-4.201 7.276 7.276 0 0 0-7.275-7.276z"/><path style="fill:#d6e6f9;fill-opacity:1;stroke-width:.145392" d="M24.474 9.525a5.953 5.953 0 0 0-5.954 5.953 5.953 5.953 0 0 0 5.81 5.948v-8.081l5.143 5.358a5.953 5.953 0 0 0 .954-3.225 5.953 5.953 0 0 0-5.953-5.953z"/><path style="color:#000;display:block;fill:#3584e4;stroke-miterlimit:10;-inkscape-stroke:none" d="M20.102 9.79v15.187l3.326-3.25 1.633 3.337c.148.336.467.526.794.58.328.055.678-.004.993-.144.315-.14.6-.363.765-.676.165-.312.186-.716-.008-1.111l-1.603-3.436h4.166zm.52 1.29 8.33 8.68h-3.763l1.95 4.18v.001c.131.27.11.462.015.641-.094.18-.285.344-.515.445-.23.102-.493.14-.698.106-.204-.034-.335-.117-.406-.277l-.002-.006-1.957-3.995-2.955 2.89z" transform="translate(3.969 2.91)"/></svg>