<svg width="190" height="134" viewBox="0 0 50.27 35.454" xmlns="http://www.w3.org/2000/svg"><path style="color:#000;fill:#3584e4;fill-opacity:1;-inkscape-stroke:none" d="M517-272.639c-2.199 0-4 1.802-4 4v76c0 2.199 1.801 4 4 4h100c2.199 0 4-1.801 4-4v-76c0-2.198-1.801-4-4-4zm0 2h100c1.125 0 2 .875 2 2v76c0 1.126-.875 2-2 2H517c-1.125 0-2-.874-2-2v-76c0-1.125.875-2 2-2z" transform="translate(-124.885 77.692) scale(.26459)"/><path style="color:#000;fill:#3584e4;fill-opacity:1;-inkscape-stroke:none" d="M564.33-260.102c-9.597 0-17.432 7.835-17.432 17.432 0 9.597 7.835 17.43 17.432 17.43 9.597 0 17.43-7.833 17.43-17.43s-7.833-17.432-17.43-17.432zm0 5.067a12.327 12.327 0 0 1 12.365 12.365 12.327 12.327 0 0 1-12.365 12.365 12.327 12.327 0 0 1-12.365-12.365 12.327 12.327 0 0 1 12.365-12.365z" transform="translate(-124.885 77.692) scale(.26459)"/><path style="color:#000;fill:#d6e6f9;fill-opacity:1;stroke-width:4;stroke-linecap:round;stroke-linejoin:round;-inkscape-stroke:none" d="M564.572-248.439a6.518 6.518 0 0 0-6.422 6.61v42.388s-.066-4.125-.066-8.978a6.518 6.518 0 1 0-13.035 0v29.781h56.899c4.388 0 8.123-3.739 8.123-8.127v-20.043a6.518 6.518 0 0 0-6.613-6.61c-3.302.054-5.855 2.569-6.191 5.854h-.23v-7.767c.052-3.676-2.755-6.668-6.43-6.612a6.518 6.518 0 0 0-6.418 6.612v7.767h-.122v-7.767c.053-3.676-2.755-6.668-6.43-6.612a6.518 6.518 0 0 0-6.418 6.612v7.767h-.033v-34.265a6.518 6.518 0 0 0-6.614-6.61z" transform="translate(-124.885 77.692) scale(.26459)"/><path style="color:#000;fill:#3584e4;fill-opacity:1;stroke-linecap:round;stroke-linejoin:round;-inkscape-stroke:none" d="M564.543-250.44c-4.678.07-8.459 3.96-8.393 8.64v26.318c-1.378-.914-2.938-1.571-4.709-1.545-4.678.069-8.458 3.958-8.392 8.636v29.752a2 2 0 0 0 2 2h56.898c5.524 0 10.123-4.604 10.123-10.127v-20.013c.068-4.775-3.868-8.707-8.642-8.637a2 2 0 0 0-.002 0c-1.661.027-3.112.656-4.389 1.527v-1.443l-.002.03c.068-4.71-3.683-8.713-8.459-8.64-2.637.04-4.892 1.365-6.43 3.29-1.539-1.977-3.823-3.331-6.54-3.29-1.662.026-3.118.655-4.42 1.508V-241.8c.067-4.759-3.846-8.675-8.6-8.63a2 2 0 0 0-.014-.009v.006c-.01 0-.019-.006-.03-.006zm.059 4a4.487 4.487 0 0 1 4.584 4.583 2 2 0 0 0 0 .027v34.266a2 2 0 0 0 2 2h.033a2 2 0 0 0 2-2v-7.768a2 2 0 0 0 0-.027 4.49 4.49 0 0 1 4.449-4.584c2.575-.04 4.437 1.942 4.398 4.584a2 2 0 0 0 0 .027v7.768a2 2 0 0 0 2 2h.123a2 2 0 0 0 2-2v-7.768a2 2 0 0 0-.002-.027 4.49 4.49 0 0 1 4.45-4.584c2.574-.04 4.438 1.942 4.4 4.584a2 2 0 0 0 0 .027v7.768a2 2 0 0 0 2 2h.229a2 2 0 0 0 1.99-1.795c.242-2.368 1.93-4.021 4.232-4.059a4.487 4.487 0 0 1 4.584 4.582 2 2 0 0 0-.002.027v20.043c0 3.253-2.871 6.127-6.123 6.127H547.05v-27.781a2 2 0 0 0 0-.027 4.488 4.488 0 0 1 4.45-4.582 4.487 4.487 0 0 1 4.585 4.582 2 2 0 0 0 0 .027c0 4.853.066 8.948.066 8.978v.034a2 2 0 0 0 4-.034v-42.388a2 2 0 0 0 0-.027 4.488 4.488 0 0 1 4.451-4.582z" transform="translate(-124.885 77.692) scale(.26459)"/></svg>