<svg width="190" height="190" viewBox="0 0 50.27 50.271" xmlns="http://www.w3.org/2000/svg"><path style="color:#000;fill:#3584e4;-inkscape-stroke:none;fill-opacity:1" d="M18.025 13.04c-3.18 0-5.804 2.623-5.804 5.804v92.365c0 3.18 2.624 5.805 5.804 5.805h54.196v-4H18.025c-1.034 0-1.804-.771-1.804-1.805v-79.14h95.87v59.536h4V18.844c0-3.181-2.623-5.805-5.804-5.805H18.025zm0 4h92.262c1.034 0 1.805.77 1.805 1.804v12.224H16.22V18.844c0-1.034.77-1.805 1.804-1.805zm85.37 3.997-.026.026h-1.152v1.166l-.018.017 1.805 1.785-1.805 1.783.026.026h-.008v1.174h1.168l.01.01.01-.01h.013V27l1.793-1.773 1.818 1.796.01-.01h1.182V25.84h-.022l.026-.026-1.805-1.783 1.805-1.785-.01-.01h.006v-1.174h-1.166l-.026-.025-1.818 1.797-1.816-1.797zm-36.303 33.58-5.701 5.701-.006.004v.002a.995.995 0 0 0-.293.705v1h1c.277 0 .526-.11.707-.29l4.293-4.294 4.293 4.293c.18.181.43.291.707.291h1v-1a.995.995 0 0 0-.293-.705l-.006-.006-5.701-5.7zm0 8-5.701 5.701-.006.004v.002a.995.995 0 0 0-.293.705v1h1c.277 0 .526-.11.707-.29l4.293-4.294 4.293 4.293c.18.181.43.291.707.291h1v-1a.995.995 0 0 0-.293-.705l-.006-.006-5.701-5.7zm0 8-5.701 5.701-.006.004v.002a.995.995 0 0 0-.293.705v1h1c.277 0 .526-.11.707-.29l4.293-4.294 4.293 4.293c.18.181.43.291.707.291h1v-1a.995.995 0 0 0-.293-.705l-.006-.006-5.701-5.7z" transform="scale(.26459)"/><path style="color:#000;fill:#eeeeec;-inkscape-stroke:none" d="M516.988-693.08H616" transform="translate(-132.798 191.731) scale(.26459)"/><path style="color:#000;clip-rule:nonzero;display:inline;overflow:visible;visibility:visible;opacity:1;isolation:auto;mix-blend-mode:normal;color-interpolation:sRGB;color-interpolation-filters:linearRGB;solid-color:#000;solid-opacity:1;fill:none;fill-opacity:1;fill-rule:nonzero;stroke:none;stroke-width:1;stroke-linecap:butt;stroke-linejoin:miter;stroke-miterlimit:4;stroke-dasharray:none;stroke-dashoffset:0;stroke-opacity:1;marker:none;marker-start:none;marker-mid:none;marker-end:none;paint-order:normal;color-rendering:auto;image-rendering:auto;shape-rendering:auto;text-rendering:auto;enable-background:accumulate" d="M514.408-711.649h104.021v104.021H514.408z" transform="translate(-132.798 191.731) scale(.26459)"/><path transform="rotate(-90 -11.677 181.712) scale(.26459)" style="color:#bebebe;display:inline;overflow:visible;visibility:visible;fill:none;stroke:none;stroke-width:1;marker:none;enable-background:new" d="M571.62 790h16v16h-16z"/><path style="color:#bebebe;display:inline;overflow:visible;visibility:visible;fill:none;stroke:none;stroke-width:1;marker:none;enable-background:new" transform="rotate(-90 -11.677 181.712) scale(.26459)" d="M565.62 790h16v16h-16z"/><path transform="rotate(-90 -11.677 181.712) scale(.26459)" style="color:#bebebe;display:inline;overflow:visible;visibility:visible;fill:none;stroke:none;stroke-width:1;marker:none;enable-background:new" d="M559.62 790h16v16h-16z"/><path style="color:#000;fill:#3584e4;stroke-width:3.7795;-inkscape-stroke:none" d="M75.223 90.605a4.015 4.015 0 0 0-4.002 4v76.004c0 2.2 1.803 3.995 4.002 3.995h100.002a4.002 4.002 0 0 0 3.992-3.995V94.605c0-2.198-1.794-4-3.992-4H75.223zm0 2h100.002c1.125 0 1.992.875 1.992 2v76.004a1.961 1.961 0 0 1-1.992 1.993H75.223c-1.126 0-2-.867-2-1.993V94.605c0-1.125.874-2 2-2zm17.06 24.883v1c0 .277.113.525.293.705v.002l.006.004 5.701 5.701 5.701-5.7.006-.007a.995.995 0 0 0 .293-.705v-1h-1a.994.994 0 0 0-.707.291l-4.293 4.293-4.293-4.293a.994.994 0 0 0-.707-.29h-1zm0 8v1c0 .277.113.525.293.705v.002l.006.004 5.701 5.701 5.701-5.7.006-.007a.995.995 0 0 0 .293-.705v-1h-1a.994.994 0 0 0-.707.291l-4.293 4.293-4.293-4.293a.994.994 0 0 0-.707-.29h-1zm0 8v1c0 .277.113.525.293.705v.002l.006.004 5.701 5.701 5.701-5.7.006-.007a.995.995 0 0 0 .293-.705v-1h-1a.994.994 0 0 0-.707.291l-4.293 4.293-4.293-4.293a.994.994 0 0 0-.707-.29h-1z" transform="scale(.26459)"/><g style="display:inline"><path transform="translate(42.598 -216.928) scale(.26459)" d="M-23.607 932.367c-3.398 0-6.147 2.863-6.135 6.418v36.516h-.158v-28.85c0-3.555-3-6.418-6.398-6.418-3.398 0-6.133 2.863-6.133 6.418v37.115h-.283v-7.982c0-3.555-2.472-6.418-5.87-6.418s-6.133 2.863-6.133 6.418v25.916H1.11c1.91 0 3.613-.907 4.736-2.332.874-1.109 1.391-2.53 1.396-4.086v-24.039c0-3.555-2.735-6.418-6.132-6.418-3.398 0-6.003 2.863-6.003 6.418v4.258h-.158v-10.71c0-3.555-2.735-6.415-6.133-6.415-3.397 0-6.132 2.86-6.132 6.416V975.3h-.159v-36.516c0-3.555-2.735-6.418-6.132-6.418z" style="color:#000;clip-rule:nonzero;display:inline;overflow:visible;visibility:visible;opacity:1;isolation:auto;mix-blend-mode:normal;color-interpolation:sRGB;color-interpolation-filters:linearRGB;solid-color:#000;solid-opacity:1;vector-effect:none;fill:#d6e6f9;fill-opacity:1;fill-rule:nonzero;stroke:#3584e4;stroke-width:4;stroke-linecap:round;stroke-linejoin:round;stroke-miterlimit:4;stroke-dasharray:none;stroke-dashoffset:0;stroke-opacity:1;marker:none;color-rendering:auto;image-rendering:auto;shape-rendering:auto;text-rendering:auto;enable-background:accumulate"/></g><path transform="matrix(0 .26459 .26459 0 -185.135 -118.305)" style="color:#bebebe;display:inline;overflow:visible;visibility:visible;fill:none;stroke:none;stroke-width:1;marker:none;enable-background:new" d="M571.62 790h16v16h-16z"/><path style="color:#bebebe;display:inline;overflow:visible;visibility:visible;fill:none;stroke:none;stroke-width:1;marker:none;enable-background:new" transform="matrix(0 .26459 .26459 0 -185.135 -118.305)" d="M565.62 790h16v16h-16z"/><path transform="matrix(0 .26459 .26459 0 -185.135 -118.305)" style="color:#bebebe;display:inline;overflow:visible;visibility:visible;fill:none;stroke:none;stroke-width:1;marker:none;enable-background:new" d="M559.62 790h16v16h-16z"/></svg>