<svg width="190" height="134" viewBox="0 0 50.27 35.454" xmlns="http://www.w3.org/2000/svg"><path style="color:#000;fill:#3584e4;stroke-width:3.7795;-inkscape-stroke:none" d="M45.002 23.998A4.017 4.017 0 0 0 41 28v76.002a4.017 4.017 0 0 0 4.002 4.002h100c2.199 0 3.994-1.803 3.994-4.002V28c0-2.199-1.795-4.002-3.994-4.002h-100zm0 2h100c1.125 0 2.002.877 2.002 2.002v76.002a1.977 1.977 0 0 1-2.002 2.002h-100A1.977 1.977 0 0 1 43 104.002V28c0-1.125.877-2.002 2.002-2.002zM98 38.125l-3.719 3.719a1.015 1.015 0 0 0-.281.718v1h1c.265 0 .53-.093.719-.28L97 42v7.125l-1.281-1.281a1.015 1.015 0 0 0-.719-.282h-1v1c0 .266.093.531.281.72L98 53l3.719-3.719c.188-.188.281-.453.281-.718v-1h-1c-.265 0-.53.092-.719.28L99 49.126V42l1.281 1.281c.188.188.454.282.719.282h1v-1c0-.266-.093-.531-.281-.72L98 38.126z" transform="scale(.26459)"/><g style="display:inline"><path style="color:#000;clip-rule:nonzero;display:inline;overflow:visible;visibility:visible;opacity:1;isolation:auto;mix-blend-mode:normal;color-interpolation:sRGB;color-interpolation-filters:linearRGB;solid-color:#000;solid-opacity:1;vector-effect:none;fill:#d6e6f9;fill-opacity:1;fill-rule:nonzero;stroke:#3584e4;stroke-width:4;stroke-linecap:round;stroke-linejoin:round;stroke-miterlimit:4;stroke-dasharray:none;stroke-dashoffset:0;stroke-opacity:1;marker:none;color-rendering:auto;image-rendering:auto;shape-rendering:auto;text-rendering:auto;enable-background:accumulate" d="M-23.607 932.367c-3.398 0-6.147 2.863-6.135 6.418v36.516h-.158v-28.85c0-3.555-3-6.418-6.398-6.418-3.398 0-6.133 2.863-6.133 6.418v37.115h-.283v-7.982c0-3.555-2.472-6.418-5.87-6.418s-6.133 2.863-6.133 6.418v25.916H1.11c1.91 0 3.613-.907 4.736-2.332.874-1.109 1.391-2.53 1.396-4.086v-24.039c0-3.555-2.735-6.418-6.132-6.418-3.398 0-6.003 2.863-6.003 6.418v4.258h-.158v-10.71c0-3.555-2.735-6.415-6.133-6.415-3.397 0-6.132 2.86-6.132 6.416V975.3h-.159v-36.516c0-3.555-2.735-6.418-6.132-6.418z" transform="translate(34.602 -232.963) scale(.26459)"/></g></svg>